<svg xmlns="http://www.w3.org/2000/svg" width="128" height="128" viewBox="0 0 33.867 33.867"><path d="M0 0h33.867v33.867H0z"/><g fill="#fff"><path d="M0 25.4h16.933v8.467H0zM13.25 0a16.933 16.933 0 0 0-.55 4.233 16.933 16.933 0 0 0 16.933 16.934 16.933 16.933 0 0 0 4.234-.56v-9.053a8.467 8.467 0 0 1-.393.225 8.467 8.467 0 0 1-.773.346 8.467 8.467 0 0 1-.803.266 8.467 8.467 0 0 1-.825.186 8.467 8.467 0 0 1-.84.102 8.467 8.467 0 0 1-.6.021 8.467 8.467 0 0 1-.845-.042 8.467 8.467 0 0 1-.837-.127 8.467 8.467 0 0 1-.82-.21 8.467 8.467 0 0 1-.795-.29 8.467 8.467 0 0 1-.762-.368 8.467 8.467 0 0 1-.721-.442 8.467 8.467 0 0 1-.674-.512 8.467 8.467 0 0 1-.62-.577 8.467 8.467 0 0 1-.558-.636 8.467 8.467 0 0 1-.492-.688 8.467 8.467 0 0 1-.421-.734 8.467 8.467 0 0 1-.346-.773 8.467 8.467 0 0 1-.267-.803 8.467 8.467 0 0 1-.185-.825 8.467 8.467 0 0 1-.102-.84 8.467 8.467 0 0 1-.021-.6 8.467 8.467 0 0 1 .042-.845 8.467 8.467 0 0 1 .127-.837 8.467 8.467 0 0 1 .209-.82 8.467 8.467 0 0 1 .29-.795 8.467 8.467 0 0 1 .368-.762A8.467 8.467 0 0 1 22.31 0h-9.06z"/></g></svg>
